<svg width="1024" height="1024" viewBox="0 0 1024 1024" fill="none" xmlns="http://www.w3.org/2000/svg">
<path fill-rule="evenodd" clip-rule="evenodd" d="M439.129 200.817C439.129 240.661 439.102 280.486 438.66 320.019C344.666 341.812 230.923 400.983 230.923 511.871C230.923 626.28 355.348 691.97 455.806 704.854V566.941H292.694L338.307 454.144H461.126L569.778 670.899V824.969L565.207 825.276C548.055 827.063 530.557 828 512.791 828C292.545 828 114 686.391 114 511.707C114 356.981 254.076 228.23 439.129 200.817ZM910.264 511.61C910.264 666.156 770.251 794.766 585.288 822.148C585.288 782.284 585.211 742.416 585.688 702.776C679.865 680.927 793.396 623.518 793.396 511.773C793.396 427.161 717.776 354.962 611.421 326.674C598.17 323.152 582.753 320.166 568.619 317.911V612.954C531.173 539.444 492.513 463.673 454.7 389.317V198.75L459.269 199.068V198.389C654.295 178.022 910.264 288.345 910.264 511.61Z" fill="#219653"/>
</svg>
